<svg width="30" height="33" viewBox="0 0 30 33" fill="none" xmlns="http://www.w3.org/2000/svg">
<path d="M21.7436 32.9999C23.1445 32.9999 24.2802 31.8159 24.2802 30.3554C24.2802 28.8949 23.1445 27.7109 21.7436 27.7109C20.3427 27.7109 19.207 28.8949 19.207 30.3554C19.207 31.8159 20.3427 32.9999 21.7436 32.9999Z" fill="white"/>
<path d="M10.146 32.9999C11.5469 32.9999 12.6825 31.8159 12.6825 30.3554C12.6825 28.8949 11.5469 27.7109 10.146 27.7109C8.74504 27.7109 7.60938 28.8949 7.60938 30.3554C7.60938 31.8159 8.74504 32.9999 10.146 32.9999Z" fill="white"/>
<path d="M5.20361 4.95407L4.91371 8.65631C4.85573 9.36654 5.39204 9.95587 6.07329 9.95587H28.2647C28.8735 9.95587 29.3808 9.47231 29.4243 8.83765C29.6127 6.16296 27.6559 3.98695 25.0904 3.98695H7.27635C7.13141 3.32206 6.84151 2.68739 6.39218 2.1585C5.66744 1.35761 4.65281 0.88916 3.60919 0.88916H1.0871C0.492821 0.88916 0 1.40294 0 2.0225C0 2.64206 0.492821 3.15584 1.0871 3.15584H3.60919C4.05852 3.15584 4.47887 3.35228 4.78326 3.68473C5.08765 4.03229 5.2326 4.48562 5.20361 4.95407Z" fill="white"/>
<path d="M27.9192 12.2227H5.68424C5.07546 12.2227 4.58264 12.7062 4.52466 13.3258L4.00285 19.8991C3.79993 22.4832 5.74222 24.6894 8.22082 24.6894H24.339C26.5132 24.6894 28.4265 22.8307 28.5859 20.564L29.0642 13.5071C29.1222 12.812 28.6004 12.2227 27.9192 12.2227Z" fill="white"/>
</svg>
